# xmcd
#
# Track frame offsets: 
#        150
#        19781
#        36180
#        70138
#        96142
#        116919
#        130267
#        153118
#        168118
#        181982
#        202887
#        223143
#        250022
#        267224
#        283516
#        314037
#        330851
#
# Disc length: 4744 seconds
#
# Revision: 0
# Processed by: cddbd v1.5.2PL0 Copyright (c) Steve Scherf et al.
# Submitted via: ExactAudioCopy v1.3
#
DISCID=eb128611
DTITLE=Various Artists  - Akella Presents - vol. 216 - Electric Blues 
DTITLE=CD2
DYEAR=2019
DGENRE=Blues
TTITLE0=Ron Evans Group - Party Party
TTITLE1=Billy Hector - The Creeper
TTITLE2=The Road Dogs - Brother Rain
TTITLE3=The Moon Dogs - Keep It To Yourself
TTITLE4=Biscuit Miller and The Mix - 609
TTITLE5=8 Ball Aitken - Sweet As You
TTITLE6=Robbert Fossen - Can't No Grave Hold My Body Down
TTITLE7=Tawl Paul - When the Blues Come Knockin'
TTITLE8=Mike Sponza - Just In Time
TTITLE9=Gary Smith - I Can't Seem to Shake These Blues
TTITLE10=The Ripcords - Good Time Charlie
TTITLE11=Virgil Caine - Hypnotozed
TTITLE12=Danny Kalb - I Wish You Would
TTITLE13=Payne Brothers - Make Ends Meet
TTITLE14=Philipp Fankhauser - Wheels to the Road Again
TTITLE15=Klaus Tietz - Musgrave
TTITLE16=Dennis Glen Avina - Why I Play The Blues
EXTD=
EXTT0=
EXTT1=
EXTT2=
EXTT3=
EXTT4=
EXTT5=
EXTT6=
EXTT7=
EXTT8=
EXTT9=
EXTT10=
EXTT11=
EXTT12=
EXTT13=
EXTT14=
EXTT15=
EXTT16=
PLAYORDER=
